<svg xmlns="http://www.w3.org/2000/svg"><symbol id="email" viewBox="0 0 256 256"><path d="M128 170L0 84.7v121.2h256V84.7L128 170z"/><path d="M256 50.1v18.7l-128 85.4L0 68.8V50.1h256z"/></symbol><symbol id="close" viewBox="0 0 256 256"><path d="M27.2 256L0 228.8 100.8 128 0 27.2 27.2 0 142 114.8a18.6 18.6 0 0 1 .8 26.3l-.8.9z"/><path d="M228.8 0L256 27.2 155.2 128 256 228.8 228.8 256 114 141.2a18.6 18.6 0 0 1-.8-26.3l.8-.9zM86 143L229.5-.5"/></symbol><symbol id="facebook" viewBox="0 0 256 256"><path d="M166.5 41.6h28.8V0h-41.1c-41.5 0-53.3 33.3-53.3 54.2v39.1H60.7v47.1h40.2V256H148V140.4h39.3l6.1-47.1H148V59.8c0-12.2 9.7-18 18.5-18.2z"/></symbol><symbol id="flickr" viewBox="0 0 256 256"><path fill-rule="evenodd" d="M217.3 0H38.7A38.7 38.7 0 0 0 0 38.7v178.6A38.7 38.7 0 0 0 38.7 256h178.6a38.7 38.7 0 0 0 38.7-38.7V38.7A38.7 38.7 0 0 0 217.3 0zM114.6 124.3c0 24.2-18.1 43.9-40.4 43.9s-40.5-19.7-40.5-43.9 18.1-44 40.5-44 40.4 19.7 40.4 44zm103.5-.6c0 23.9-18.6 43.4-41.6 43.4s-41.7-19.5-41.7-43.4 18.7-43.4 41.7-43.4 41.6 19.4 41.6 43.4z"/></symbol><symbol id="fax" viewBox="0 0 256 256"><path d="M224.8 205.8a18.3 18.3 0 1 1-18.3-18.3 18.3 18.3 0 0 1 18.3 18.3M256 234V87.7s0-18.3-18.3-18.3h-31.2v58.1c0 18.3-18.3 18.3-18.3 18.3H67.8c-18.3 0-18.3-18.3-18.3-18.3V69.4H18.3S0 69.4 0 87.7V234s0 18.3 18.3 18.3h219.4s18.3 0 18.3-18.3"/><path d="M189.1 107.5V22s0-18.3-18.3-18.3H85.2S66.9 3.7 66.9 22v85.5s0 18.3 18.3 18.3h85.6s18.3 0 18.3-18.3"/></symbol><symbol id="github" viewBox="0 0 256 256"><path fill-rule="evenodd" d="M128 3.2a128 128 0 0 0-40.5 249.4c6.4 1.2 8.8-2.8 8.8-6.2s-.1-11-.2-21.7C60.5 232.4 53 207.5 53 207.5c-5.8-14.8-14.2-18.7-14.2-18.7-11.6-7.9.9-7.8.9-7.8 12.8.9 19.6 13.2 19.6 13.2 11.4 19.6 29.9 13.9 37.2 10.6 1.2-8.2 4.5-13.9 8.1-17.1-28.4-3.2-58.3-14.2-58.3-63.2a49.6 49.6 0 0 1 13.2-34.4c-1.3-3.2-5.7-16.2 1.3-33.9 0 0 10.7-3.4 35.2 13.2a117.7 117.7 0 0 1 32-4.3 118.9 118.9 0 0 1 32.1 4.3c24.4-16.6 35.1-13.2 35.1-13.2 7 17.7 2.6 30.7 1.3 33.9a49.5 49.5 0 0 1 13.1 34.4c0 49.1-29.9 60-58.4 63.1 4.6 4 8.7 11.8 8.7 23.7 0 17.1-.2 31-.2 35.1s2.3 7.5 8.8 6.2A128 128 0 0 0 128 3.2z"/></symbol><symbol id="down-indicator" viewBox="0 0 256 256"><path d="M0 81.2l27.2-27.1L128 154.9 228.8 54.1 256 81.2 141.2 196a18.6 18.6 0 0 1-26.3.9l-.9-.9z"/></symbol><symbol id="home" viewBox="0 0 256 256"><path d="M128 50.5l-90.9 80.9v117.9h60.6v-49.9a7.4 7.4 0 0 1 7.4-7.4h45.8a7.4 7.4 0 0 1 7.4 7.4v49.9h60.6V131.4zM70.7 40.4L37.1 70.7V23.6h33.6v16.8z"/><path d="M244.6 134.7L128 30.3 11.7 134.4 0 121.3 128 6.7l128 114.6-11.4 13.4z"/></symbol><symbol id="instagram" viewBox="0 0 256 256"><path d="M184.1 23.1a48.9 48.9 0 0 1 48.8 48.8v112.2a48.9 48.9 0 0 1-48.8 48.8H71.9a48.9 48.9 0 0 1-48.8-48.8V71.9a48.9 48.9 0 0 1 48.8-48.8h112.2m0-23.1H71.9A71.9 71.9 0 0 0 0 71.9v112.2A71.9 71.9 0 0 0 71.9 256h112.2a71.9 71.9 0 0 0 71.9-71.9V71.9A71.9 71.9 0 0 0 184.1 0z"/><path d="M128 85.9A42.1 42.1 0 1 1 85.9 128 42.2 42.2 0 0 1 128 85.9m0-23.2a65.3 65.3 0 1 0 65.3 65.3A65.4 65.4 0 0 0 128 62.7zm68.2 12.6c-8.4 0-15.9-7.7-15.6-16.1a15.7 15.7 0 0 1 16-15 15.5 15.5 0 0 1 15.2 15.7 15.8 15.8 0 0 1-15.6 15.4z"/></symbol><symbol id="left-indicator" viewBox="0 0 256 256"><path d="M174.8 0l27.1 27.2L101.1 128l100.8 100.8-27.1 27.2L60 141.2a18.6 18.6 0 0 1-.9-26.3l.9-.9z"/></symbol><symbol id="linkedin" viewBox="0 0 256 256"><path d="M4.7 85.3H58v170.5H4.7z"/><circle cx="31.3" cy="31.6" r="31.3"/><path d="M256 255.8h-53.3v-96.7s1.9-30.9-27.3-31.6-31 31.6-31 31.6v96.7H91.1V85.3h53.3v20.5S160.5 81 192.3 81c41.7 0 48.9 19.8 53.9 27s9.8 25.7 9.8 51.1z"/></symbol><symbol id="mobile" viewBox="0 0 256 256"><path d="M180.5 0h-105a24.3 24.3 0 0 0-24.3 24.3v207.4A24.3 24.3 0 0 0 75.5 256h105a24.3 24.3 0 0 0 24.3-24.3V24.3A24.3 24.3 0 0 0 180.5 0M159 228.2H97v-16.1h62zm29.6-40.7H67.3V55.8h121.3z"/></symbol><symbol id="plus" viewBox="0 0 256 256"><path d="M108.8 0h38.4v256h-38.4z"/><path d="M256 108.8v38.4H0v-38.4z"/></symbol><symbol id="phone" viewBox="0 0 256 256"><path d="M228 195.8l-13.7 33.6a12.6 12.6 0 0 1-10.1 8.1 14 14 0 0 1-4.1.1c-46.7-6.4-89.6-28.6-120.8-62.7C45.5 138.1 27.4 90.8 27 38.1a13.2 13.2 0 0 1 11-13.2l37.9-6.4a12.9 12.9 0 0 1 14.8 8.9L104 65.2a13.8 13.8 0 0 1-3 13.9l-.4.3-20.1 17.3a9.6 9.6 0 0 0-2.9 11.4c12.5 29.8 39.9 56 61.4 70.7a11 11 0 0 0 7.6 1.6 12.8 12.8 0 0 0 5.3-2.4l17.1-16.3a13.6 13.6 0 0 1 7.1-3.7 12.7 12.7 0 0 1 8.9 1.8l36.3 19.4a11.7 11.7 0 0 1 6.4 5.8 13.5 13.5 0 0 1 .3 10.8z"/></symbol><symbol id="right-indicator" viewBox="0 0 256 256"><path d="M81.2 256l-27.1-27.2L154.9 128 54.1 27.2 81.2 0 196 114.8a18.6 18.6 0 0 1 .9 26.3l-.9.9z"/></symbol><symbol id="settings" viewBox="0 0 256 256"><path d="M256 142.1v-28.2l-36.1-12.3a94.8 94.8 0 0 0-8.3-20l16.8-34.2-19.8-19.8-34.2 16.8a94.8 94.8 0 0 0-20-8.3L142.1 0h-28.2l-12.3 36.1a94.8 94.8 0 0 0-20 8.3L47.4 27.6 27.6 47.4l16.8 34.2a94.8 94.8 0 0 0-8.3 20L0 113.9v28.2l36.1 12.3a94.8 94.8 0 0 0 8.3 20l-16.8 34.2 19.8 19.8 34.2-16.8a94.8 94.8 0 0 0 20 8.3l12.3 36.1h28.2l12.3-36.1a94.8 94.8 0 0 0 20-8.3l34.2 16.8 19.8-19.8-16.8-34.2a94.8 94.8 0 0 0 8.3-20zm-128 27.1a41.2 41.2 0 1 1 41.2-41.2 41.3 41.3 0 0 1-41.2 41.2z"/></symbol><symbol id="share" viewBox="0 0 256 256"><path d="M49.9 166.1a37.7 37.7 0 0 0 28.7-13.2l91.2 52.6a37.9 37.9 0 1 0 7.1-12.3l-91.2-52.6a36.7 36.7 0 0 0 0-24.9L176.9 63a38.2 38.2 0 1 0-7.1-12.3l-91.2 52.7a37.9 37.9 0 1 0-28.7 62.7z"/></symbol><symbol id="snapchat" viewBox="0 0 256 256"><path d="M56.9 83.4h.6c.4 6.6.7 13.2 1.1 19.7.2 2.1-.6 3.1-2.5 2.8a64.6 64.6 0 0 1-11.6-2.4 14.9 14.9 0 0 0-13.2.9c-7 4-7.8 11.6-1.3 16.4 3.2 2.4 7.1 4 10.8 5.7s7.2 2.5 10.6 4.2c5.6 2.7 7 6.5 4.4 12a94.9 94.9 0 0 1-7.8 14C37.5 172 24 183 5.2 186.7c-4.9.9-6.6 5.5-3.9 9.9a16.3 16.3 0 0 0 9.3 6.8c7.1 2.1 14.4 3.9 21.6 5.7 1.8.4 2.6 1.1 3 2.8s1.3 5.6 2 8.3c1.2 4.4 3.5 6.1 8 5.7s6-1 9.1-1.5c12.3-2.1 23.9-.7 34.2 7.4a94 94 0 0 0 8.9 6.2c18.5 12 37.5 13 57 2.6a104.2 104.2 0 0 0 13.8-9.3c9.1-6.8 19.3-8.7 30.3-7.4 3.9.5 7.8 1.3 11.6 1.8s7.4-1.2 8.7-5.9c.7-2.6 1.3-5.2 1.9-7.8s1.3-2.5 3.2-3a222.2 222.2 0 0 0 22.6-6.2 18.7 18.7 0 0 0 8.1-6.4c3.1-4 .8-8.6-4.1-9.8a76.6 76.6 0 0 1-9.4-2.5c-19.6-7.5-32.1-22.1-40.8-40.5-3-6.4-1.5-10.3 4.9-13.3 3.3-1.5 6.8-2.5 10.2-3.7s8.9-3.5 12.2-7.3 3.4-10.2-1.5-13.8-9.9-4.5-15.7-2.1a45.4 45.4 0 0 1-10.4 2.7c-2.1.3-3.1-.7-2.9-3.3.6-10.6 1.2-21.2 1.2-31.8.1-22.6-9.9-40.4-28.7-52.4-25.8-16.3-53-16.4-79.6-2.4-16.6 8.6-27.4 23-31 41.6-1.7 8.3-1.5 17.1-2.1 25.6z"/></symbol><symbol id="twitter" viewBox="0 0 256 256"><path d="M128 79.6c-7.3-58.3 63.9-80.1 91.8-36.7 19.4-10.3 23.8-13.1 27.7-14.6-5 19.7-18.3 31.1-22.8 33.4L256 51.6c-10.4 22.4-25.5 28.2-25.5 28.2C236.3 176.1 138 284.7 0 212.4c48.2 3.1 74.4-20.6 74.4-20.6-28.6.7-50-25.9-49.2-35.3 14.4 4.3 33.3 6.2 41.5.7-48.6-16-58.2-46.1-58.9-59.7 7.1 2.9 14.9 6.3 24.1 7.6C-2.8 82.2 6.6 48.9 15.6 36.9 50.7 82.6 128 79.6 128 79.6z"/></symbol><symbol id="up-indicator" viewBox="0 0 256 256"><path d="M256 174.8l-27.2 27.1L128 101.1 27.2 201.9 0 174.8 114.8 60a18.6 18.6 0 0 1 26.3-.9l.9.9z"/></symbol><symbol id="vimeo" viewBox="0 0 256 256"><path d="M255.9 68.4q-1.8 37.5-52.2 102.5-52.2 68.1-88.4 68-22.3 0-37.8-41.4l-20.7-75.9Q45.3 80.2 32.1 80.2c-1.9 0-8.6 4-20.1 12.1L0 76.7Q18.9 60 37.4 43.4c16.8-14.6 29.5-22.3 37.9-23.1q29.9-2.9 36.8 41 7.5 47.3 10.3 58.7c5.8 26.2 12.1 39.3 19 39.3s13.4-8.5 24.1-25.5 16.5-29.9 17.3-38.7c1.5-14.7-4.2-22-17.3-22a47.6 47.6 0 0 0-18.9 4.2q18.9-61.9 72.1-60.2 39.5 1.2 37.2 51.3z"/></symbol><symbol id="website" viewBox="0 0 256 256"><path d="M128 0a128 128 0 1 0 128 128A128.1 128.1 0 0 0 128 0zM17.1 136.4h44a228.8 228.8 0 0 0 4.6 39.2H27.5a112.6 112.6 0 0 1-10.4-39.2zm119.3-56h37.7a218.9 218.9 0 0 1 4.8 39.2h-42.5zm0-16V18.1c12.8 5.1 25.3 21.6 33.4 46.3zm-16.8-46.3v46.3H86.2c8.1-24.7 20.6-41.2 33.4-46.3zm0 62.3v39.2H77.1a218.9 218.9 0 0 1 4.8-39.2zm-58.5 39.2h-44a112 112 0 0 1 10.4-39.2h38.2a228.8 228.8 0 0 0-4.6 39.2zm16 16.8h42.5v39.2H81.9a218.9 218.9 0 0 1-4.8-39.2zm42.5 55.2v46.3c-12.8-5.1-25.3-21.6-33.4-46.3zm16.8 46.3v-46.3h33.4c-8.1 24.7-20.6 41.2-33.4 46.3zm0-62.3v-39.2h42.5a218.9 218.9 0 0 1-4.8 39.2zm58.5-39.2h44a112.6 112.6 0 0 1-10.4 39.2h-38.2a228.8 228.8 0 0 0 4.6-39.2zm0-16.8a228.8 228.8 0 0 0-4.6-39.2h38.2a112 112 0 0 1 10.4 39.2zm24.3-55.2h-32.8c-4.8-16.1-11.3-29.8-19.2-40.5a112.6 112.6 0 0 1 52 40.5zM88.8 23.9c-7.9 10.7-14.4 24.4-19.2 40.5H36.8a112.6 112.6 0 0 1 52-40.5zm-52 167.7h32.8c4.8 16.1 11.3 29.8 19.2 40.5a112.6 112.6 0 0 1-52-40.5zm130.4 40.5c7.9-10.7 14.4-24.4 19.2-40.5h32.8a112.6 112.6 0 0 1-52 40.5z"/></symbol><symbol id="youtube" viewBox="0 0 256 256"><path d="M211.5 217.1h-167A44.5 44.5 0 0 1 0 172.6V83.4a44.5 44.5 0 0 1 44.5-44.5h167A44.5 44.5 0 0 1 256 83.4v89.2a44.5 44.5 0 0 1-44.5 44.5zm-41.8-91.6l-68-36.1v72.2z"/></symbol></svg>