<svg id="logo-ar" data-name="logo-ar" xmlns="http://www.w3.org/2000/svg" viewBox="0 0 160.12 72.27">
<title>logo-ar</title>
<g id="title">
<path d="M86.76,67.22h.56v3.24h-.5v-.68a3.09,3.09,0,0,1-.91.54,2.74,2.74,0,0,1-1,.19,3.31,3.31,0,0,1-1.67-.44A3.24,3.24,0,0,1,82,68.86a3.17,3.17,0,0,1-.45-1.65A3.07,3.07,0,0,1,82,65.56a3.27,3.27,0,0,1,1.23-1.19A3.35,3.35,0,0,1,85,63.93a3.44,3.44,0,0,1,1.27.23,3.33,3.33,0,0,1,1.09.65l-.37.45a2.79,2.79,0,0,0-.91-.57,3,3,0,0,0-1.08-.2,2.64,2.64,0,0,0-1.38.37,2.76,2.76,0,0,0-1,1,2.73,2.73,0,0,0,1,3.73,2.67,2.67,0,0,0,1.36.37,2.59,2.59,0,0,0,1.81-.78Z"/>
<path d="M90.4,65.89a2,2,0,0,1,1.08-.31v.59a1.65,1.65,0,0,0-1.24.45,1.87,1.87,0,0,0-.53,1.24v2.6h-.62V65.6h.62v1.13A1.81,1.81,0,0,1,90.4,65.89Z"/>
<path d="M96.89,65.6v4.86h-.62v-1.1a2.11,2.11,0,0,1-.78.84,2.32,2.32,0,0,1-1.16.29,2.36,2.36,0,0,1-1.22-.31,2.13,2.13,0,0,1-.83-.88A2.69,2.69,0,0,1,92,68a2.62,2.62,0,0,1,.3-1.27,2.15,2.15,0,0,1,.82-.87,2.34,2.34,0,0,1,1.21-.31,2.31,2.31,0,0,1,1.17.29,2.07,2.07,0,0,1,.79.84V65.6Zm-1.2,3.88a1.93,1.93,0,0,0,.58-1.25v-.39a2,2,0,0,0-.58-1.25,1.74,1.74,0,0,0-1.25-.49,1.78,1.78,0,0,0-1.6.94,2.08,2.08,0,0,0-.24,1,2,2,0,0,0,.24,1,1.64,1.64,0,0,0,.65.68,1.9,1.9,0,0,0,1,.25A1.73,1.73,0,0,0,95.69,69.48Z"/>
<path d="M102.51,65.9a2.05,2.05,0,0,1,.83.87,2.82,2.82,0,0,1,0,2.53,2.13,2.13,0,0,1-.82.86,2.34,2.34,0,0,1-1.21.31,2.2,2.2,0,0,1-1.16-.3,2,2,0,0,1-.78-.84v2.92h-.62V65.6h.62v1.12a2,2,0,0,1,.77-.83,2.23,2.23,0,0,1,1.16-.31A2.33,2.33,0,0,1,102.51,65.9Zm-.38,3.79a1.68,1.68,0,0,0,.64-.68,2.14,2.14,0,0,0,0-2,1.68,1.68,0,0,0-.64-.68A1.81,1.81,0,0,0,99.6,67a2.11,2.11,0,0,0-.23,1,2,2,0,0,0,.23,1,1.64,1.64,0,0,0,.65.68,1.83,1.83,0,0,0,.94.25A1.86,1.86,0,0,0,102.13,69.69Z"/>
<path d="M108.91,66.09a1.89,1.89,0,0,1,.49,1.38v3h-.63V67.62a1.48,1.48,0,0,0-.37-1.07,1.43,1.43,0,0,0-1.06-.39,1.61,1.61,0,0,0-1.26.53,2,2,0,0,0-.46,1.39v2.38H105V63.58h.62v3.17a1.93,1.93,0,0,1,1.92-1.17A1.83,1.83,0,0,1,108.91,66.09Z"/>
<path d="M111.68,63.9a.41.41,0,0,1,.12.31.45.45,0,0,1-.12.31.41.41,0,0,1-.3.13.39.39,0,0,1-.31-.13.42.42,0,0,1-.13-.31.44.44,0,0,1,.44-.44A.38.38,0,0,1,111.68,63.9Zm-.62,1.7h.62v4.86h-.62Z"/>
<path d="M115.41,66.13a1.84,1.84,0,0,0-.93.24,1.68,1.68,0,0,0-.65.67,2.25,2.25,0,0,0,0,2,1.64,1.64,0,0,0,.65.68,1.84,1.84,0,0,0,.93.24,2.21,2.21,0,0,0,.87-.17,1.76,1.76,0,0,0,.66-.48l.35.37a2.12,2.12,0,0,1-.81.6,2.75,2.75,0,0,1-1.09.21,2.47,2.47,0,0,1-1.25-.31,2.1,2.1,0,0,1-.85-.87,2.72,2.72,0,0,1,0-2.52,2.1,2.1,0,0,1,.85-.87,2.47,2.47,0,0,1,1.25-.32,2.86,2.86,0,0,1,1,.19,2.31,2.31,0,0,1,.8.52l-.35.42A2,2,0,0,0,115.41,66.13Z"/>
<path d="M125.63,64.41a3.07,3.07,0,0,1,1.2,1.17,3.28,3.28,0,0,1,0,3.28,3.07,3.07,0,0,1-1.2,1.17,3.56,3.56,0,0,1-1.71.43h-2.58V64h2.6A3.35,3.35,0,0,1,125.63,64.41Zm-.33,5.12a2.63,2.63,0,0,0,1-1,2.57,2.57,0,0,0,.36-1.35,2.63,2.63,0,0,0-.37-1.35,2.55,2.55,0,0,0-1-1,2.65,2.65,0,0,0-1.36-.35h-2v5.32h2A2.68,2.68,0,0,0,125.3,69.53Z"/>
<path d="M132.14,69.16l.39.33a2.45,2.45,0,0,1-2,1,2.54,2.54,0,0,1-1.27-.31,2.12,2.12,0,0,1-.86-.87,2.52,2.52,0,0,1-.31-1.27,2.61,2.61,0,0,1,.3-1.26,2.16,2.16,0,0,1,.86-.86,2.51,2.51,0,0,1,1.26-.32,2.25,2.25,0,0,1,1.45.49,2.06,2.06,0,0,1,.72,1.31l-3.85,1.37a1.75,1.75,0,0,0,.66.89,1.81,1.81,0,0,0,1.08.32A1.93,1.93,0,0,0,132.14,69.16Zm-2.95-2.54a1.86,1.86,0,0,0-.5,1.38c0,.06,0,.16,0,.28l3.31-1.2a1.38,1.38,0,0,0-.58-.73,1.82,1.82,0,0,0-.95-.25A1.7,1.7,0,0,0,129.19,66.62Z"/>
<path d="M135.78,66.19a2.65,2.65,0,0,0-.67-.1,1.39,1.39,0,0,0-.75.18.62.62,0,0,0-.28.55.55.55,0,0,0,.15.4,1.16,1.16,0,0,0,.38.26c.15.06.36.14.63.22a4.74,4.74,0,0,1,.82.29,1.44,1.44,0,0,1,.54.41,1.19,1.19,0,0,1,.22.72,1.17,1.17,0,0,1-.5,1,2.14,2.14,0,0,1-1.25.34,3,3,0,0,1-1-.17,2.31,2.31,0,0,1-.82-.5l.25-.45a2.36,2.36,0,0,0,1.62.62,1.42,1.42,0,0,0,.8-.2.68.68,0,0,0,.31-.59.6.6,0,0,0-.16-.44,1,1,0,0,0-.39-.27c-.16-.07-.38-.14-.66-.23a7.56,7.56,0,0,1-.79-.28,1.4,1.4,0,0,1-.52-.41,1.05,1.05,0,0,1-.21-.69,1.11,1.11,0,0,1,.47-1,2.06,2.06,0,0,1,1.19-.32,2.73,2.73,0,0,1,.81.11,2.4,2.4,0,0,1,.69.3l-.24.47A2.7,2.7,0,0,0,135.78,66.19Z"/>
<path d="M138.67,63.9a.41.41,0,0,1,.12.31.45.45,0,0,1-.12.31.42.42,0,0,1-.31.13.38.38,0,0,1-.3-.13.42.42,0,0,1-.13-.31.39.39,0,0,1,.13-.31.38.38,0,0,1,.3-.13A.39.39,0,0,1,138.67,63.9Zm-.62,1.7h.62v4.86h-.62Z"/>
<path d="M144.67,65.6V70a2.44,2.44,0,0,1-.3,1.23,2,2,0,0,1-.84.81,2.77,2.77,0,0,1-1.28.28,3.13,3.13,0,0,1-2-.74l.3-.45a3,3,0,0,0,.78.5,2.31,2.31,0,0,0,.89.16,1.86,1.86,0,0,0,1.33-.48,1.75,1.75,0,0,0,.49-1.3v-.79a1.88,1.88,0,0,1-.74.79,2,2,0,0,1-1.11.29,2.19,2.19,0,0,1-1.15-.3,2.1,2.1,0,0,1-.79-.83,2.54,2.54,0,0,1-.28-1.21,2.47,2.47,0,0,1,.28-1.2,2,2,0,0,1,.79-.83,2.25,2.25,0,0,1,1.16-.3,2.1,2.1,0,0,1,1.1.29,2,2,0,0,1,.74.8V65.6Zm-1.46,3.92a1.71,1.71,0,0,0,.62-.66,1.93,1.93,0,0,0,.22-.93,2,2,0,0,0-.22-1,1.76,1.76,0,0,0-.62-.65,1.81,1.81,0,0,0-1.8,0,1.76,1.76,0,0,0-.62.65,2,2,0,0,0-.23,1,2,2,0,0,0,.23.94,1.68,1.68,0,0,0,.62.65,1.77,1.77,0,0,0,.9.23A1.83,1.83,0,0,0,143.21,69.52Z"/>
<path d="M150.26,66.09a1.89,1.89,0,0,1,.49,1.38v3h-.63V67.62a1.45,1.45,0,0,0-.38-1.07,1.39,1.39,0,0,0-1.05-.39,1.67,1.67,0,0,0-1.2.46,1.87,1.87,0,0,0-.51,1.22v2.62h-.63V65.6H147v1.13a1.8,1.8,0,0,1,.73-.85,2.43,2.43,0,0,1,1.18-.3A1.83,1.83,0,0,1,150.26,66.09Z"/>
<path d="M156,69.16l.39.33a2.44,2.44,0,0,1-2,1,2.5,2.5,0,0,1-1.26-.31,2.14,2.14,0,0,1-.87-.87,2.74,2.74,0,0,1,0-2.53,2.13,2.13,0,0,1,.85-.86,2.51,2.51,0,0,1,1.26-.32,2.23,2.23,0,0,1,1.45.49,2,2,0,0,1,.72,1.31l-3.85,1.37a1.75,1.75,0,0,0,.66.89,1.81,1.81,0,0,0,1.08.32A1.93,1.93,0,0,0,156,69.16ZM153,66.62a1.9,1.9,0,0,0-.5,1.38c0,.06,0,.16,0,.28l3.31-1.2a1.34,1.34,0,0,0-.58-.73,1.78,1.78,0,0,0-.94-.25A1.7,1.7,0,0,0,153,66.62Z"/>
<path d="M159,65.89a2,2,0,0,1,1.08-.31v.59a1.62,1.62,0,0,0-1.23.45,1.88,1.88,0,0,0-.54,1.24v2.6h-.62V65.6h.62v1.13A1.87,1.87,0,0,1,159,65.89Z"/>
</g>
<g id="name">
<path d="M3.5,3.87a9.77,9.77,0,0,1,7.23-2.61A9.77,9.77,0,0,1,18,3.87a9.77,9.77,0,0,1,2.61,7.23V25.19H18.23v-7h-15v7H.88V11.1A9.74,9.74,0,0,1,3.5,3.87ZM16.24,5.41a7.33,7.33,0,0,0-5.51-2.05A7.36,7.36,0,0,0,5.21,5.41a7.87,7.87,0,0,0-2,5.69v5h15v-5A7.83,7.83,0,0,0,16.24,5.41Z"/>
<path d="M43.28,0V25.19H41V21.12a7.5,7.5,0,0,1-2.85,3.1,8.1,8.1,0,0,1-4.28,1.11,8.69,8.69,0,0,1-4.48-1.16A8,8,0,0,1,26.34,21a10,10,0,0,1-1.08-4.69,9.57,9.57,0,0,1,1.1-4.65,8.1,8.1,0,0,1,3.06-3.19,8.51,8.51,0,0,1,4.43-1.15,8.07,8.07,0,0,1,4.29,1.12A7.54,7.54,0,0,1,41,11.51V0ZM37.75,22.46A6.26,6.26,0,0,0,40.14,20,7.44,7.44,0,0,0,41,16.33a7.54,7.54,0,0,0-.87-3.65,6.33,6.33,0,0,0-2.39-2.53,6.7,6.7,0,0,0-9.34,2.53,7.55,7.55,0,0,0-.88,3.65A7.44,7.44,0,0,0,28.4,20a6.24,6.24,0,0,0,2.41,2.5,6.79,6.79,0,0,0,3.48.9A6.69,6.69,0,0,0,37.75,22.46Z"/>
<path d="M66.27,7.4V25.19H64v-4a7.4,7.4,0,0,1-2.85,3.06,8.21,8.21,0,0,1-4.24,1.09,8.67,8.67,0,0,1-4.48-1.16A7.85,7.85,0,0,1,49.36,21a10,10,0,0,1-1.09-4.69,9.79,9.79,0,0,1,1.09-4.65,8,8,0,0,1,3-3.19,8.53,8.53,0,0,1,4.43-1.15,8.34,8.34,0,0,1,4.29,1.08A7.38,7.38,0,0,1,64,11.41v-4ZM61.89,21.61A7,7,0,0,0,64,17V15.62a7.12,7.12,0,0,0-2.1-4.6A6.31,6.31,0,0,0,57.3,9.23a6.61,6.61,0,0,0-3.46.92,6.52,6.52,0,0,0-2.41,2.53,7.44,7.44,0,0,0-.88,3.65A7.55,7.55,0,0,0,51.41,20a6.26,6.26,0,0,0,2.42,2.5,6.72,6.72,0,0,0,3.47.9A6.41,6.41,0,0,0,61.89,21.61Z"/>
<path d="M100.56,9.17a7.06,7.06,0,0,1,1.76,5.09V25.19H100V14.8a5.44,5.44,0,0,0-1.37-4,5.05,5.05,0,0,0-3.79-1.41,5.69,5.69,0,0,0-4.46,2,7.46,7.46,0,0,0-1.62,5v8.76h-2.3V14.8a5.4,5.4,0,0,0-1.38-4,5,5,0,0,0-3.78-1.41,5.75,5.75,0,0,0-4.48,2,7.41,7.41,0,0,0-1.63,5v8.76H72.92V7.4H75.2v4.18a6.37,6.37,0,0,1,2.63-3.16,8.4,8.4,0,0,1,4.26-1.09,6.84,6.84,0,0,1,4.22,1.26,6,6,0,0,1,2.23,3.53,6.66,6.66,0,0,1,2.63-3.56,8.18,8.18,0,0,1,4.46-1.23A6.5,6.5,0,0,1,100.56,9.17Z"/>
<path d="M14.29,57.49l-3.46-6.58H6.21v6.58H0V33.69H10.69q4.72,0,7.32,2.19a7.64,7.64,0,0,1,2.6,6.17,9.43,9.43,0,0,1-1.09,4.63,7.48,7.48,0,0,1-3.16,3l5,7.77ZM6.21,46h4.52a4.18,4.18,0,0,0,2.93-1,3.54,3.54,0,0,0,1-2.75,3.44,3.44,0,0,0-1-2.67,4.22,4.22,0,0,0-2.93-.93H6.21Z"/>
<path d="M38.36,40.09a8.53,8.53,0,0,1,3.53,3.3,10.24,10.24,0,0,1,0,9.84,8.47,8.47,0,0,1-3.53,3.3A11.32,11.32,0,0,1,33.1,57.7a11.32,11.32,0,0,1-5.26-1.17,8.44,8.44,0,0,1-3.52-3.3,10.45,10.45,0,0,1,0-9.84,8.5,8.5,0,0,1,3.52-3.3,11.32,11.32,0,0,1,5.26-1.17A11.32,11.32,0,0,1,38.36,40.09Zm-8.11,5a4.82,4.82,0,0,0-1.09,3.29,4.89,4.89,0,0,0,1.09,3.33,3.56,3.56,0,0,0,2.85,1.25A3.63,3.63,0,0,0,36,51.69a4.94,4.94,0,0,0,1.08-3.33A4.83,4.83,0,0,0,36,45.07a3.64,3.64,0,0,0-2.87-1.26A3.57,3.57,0,0,0,30.25,45.07Z"/>
<path d="M62.33,40.09a7.89,7.89,0,0,1,3,3.33,11,11,0,0,1,1.07,5,10.93,10.93,0,0,1-1,4.89,7.62,7.62,0,0,1-3,3.26A8.39,8.39,0,0,1,58,57.7,7.33,7.33,0,0,1,54.84,57a6.73,6.73,0,0,1-2.39-1.92v2.37h-6V32.3h6v9.2a6.48,6.48,0,0,1,5.4-2.58A8.48,8.48,0,0,1,62.33,40.09ZM59.22,51.55a4.78,4.78,0,0,0,1.11-3.29A4.85,4.85,0,0,0,59.22,45a3.6,3.6,0,0,0-2.87-1.27A3.51,3.51,0,0,0,53.54,45a4.89,4.89,0,0,0-1.09,3.31,4.82,4.82,0,0,0,1.09,3.29,3.53,3.53,0,0,0,2.81,1.26A3.62,3.62,0,0,0,59.22,51.55Z"/>
<path d="M74.77,31.57a3.44,3.44,0,0,1,0,4.64,3.34,3.34,0,0,1-4.58,0,3.44,3.44,0,0,1,0-4.64,3.36,3.36,0,0,1,4.58,0Zm-5.24,7.56h6V57.49h-6Z"/>
<path d="M87.45,52.5A4,4,0,0,0,89.18,52l.51,5a9.35,9.35,0,0,1-3.53.78A6.85,6.85,0,0,1,83,57a5.6,5.6,0,0,1-2.29-2.33,7.93,7.93,0,0,1-.85-3.8V32.3h6V50.64C85.85,51.88,86.39,52.5,87.45,52.5Z"/>
<path d="M99.2,52.5a4,4,0,0,0,1.73-.47l.51,5a9.39,9.39,0,0,1-3.53.78A6.85,6.85,0,0,1,94.7,57a5.54,5.54,0,0,1-2.29-2.33,7.82,7.82,0,0,1-.85-3.8V32.3h6V50.64C97.6,51.88,98.13,52.5,99.2,52.5Z"/>
<path d="M122.15,39.13V57.49H116.1V55.18a6.42,6.42,0,0,1-2.32,1.89,7,7,0,0,1-3.07.66,8.43,8.43,0,0,1-4.49-1.19,7.92,7.92,0,0,1-3-3.34,11.11,11.11,0,0,1-1.07-5,10.8,10.8,0,0,1,1-4.89,7.68,7.68,0,0,1,3-3.26,8.57,8.57,0,0,1,4.48-1.16,7,7,0,0,1,3.09.68,6.55,6.55,0,0,1,2.34,1.9V39.13Zm-7.27,12.76A4.59,4.59,0,0,0,116.1,49V47.78a4.59,4.59,0,0,0-1.22-2.88,3.54,3.54,0,0,0-2.68-1.09,3.65,3.65,0,0,0-2.87,1.27,5.55,5.55,0,0,0,0,6.63A3.65,3.65,0,0,0,112.2,53,3.54,3.54,0,0,0,114.88,51.89Z"/>
<path d="M135.27,39.74a6.83,6.83,0,0,1,3.44-.85v5.53c-.2,0-.51,0-.91,0a5.6,5.6,0,0,0-3.47,1,3.83,3.83,0,0,0-1.52,2.73v9.37h-6V39.13h6v3A6.54,6.54,0,0,1,135.27,39.74Z"/>
<path d="M159.9,32.3V57.49h-6.05V55.12a6.2,6.2,0,0,1-2.32,2,7.1,7.1,0,0,1-3.11.66,8.42,8.42,0,0,1-4.48-1.19,7.92,7.92,0,0,1-3-3.34,11,11,0,0,1-1.07-5,10.8,10.8,0,0,1,1-4.89,7.72,7.72,0,0,1,3-3.26,8.35,8.35,0,0,1,4.42-1.16,7.26,7.26,0,0,1,3.17.68,6.6,6.6,0,0,1,2.39,1.94V32.3Zm-7.13,19.41a5,5,0,0,0,1.08-3.32,4.91,4.91,0,0,0-1.08-3.32,3.87,3.87,0,0,0-5.72,0,5.51,5.51,0,0,0,0,6.63,3.86,3.86,0,0,0,5.72,0Z"/>
</g>
</svg>
